<svg xmlns="http://www.w3.org/2000/svg" viewBox="0 0 512 512">
  <circle cx="256" cy="256" r="256" fill="#7f1d1d"/>
  <path d="M464 256c0-114.87-93.13-208-208-208S48 141.13 48 256s93.13 208 208 208 208-93.13 208-208z" fill="#991b1b"/>
  <path d="M376.6 230.3c-13-21.8-38.4-36.6-66.2-36.6-2.5 0-5 .1-7.4.4-18.7-22.6-46.7-36.9-77.9-36.9-38.7 0-72.3 22-90.1 54.4-23.4 5.2-42.3 22.8-49.4 46.1-1.3 4.3-2 8.9-2 13.6 0 26.5 21.5 48 48 48h220c26.5 0 48-21.5 48-48 0-16.7-8.6-31.4-21.6-40.2-.4-.2-.9-.5-1.4-.8z" fill="#fbbf24"/>
  <path d="M225 157.3c0-16.9 31-29.3 31-29.3s31 12.4 31 29.3-13.9 30.7-31 30.7-31-13.8-31-30.7z" fill="#f59e0b"/>
  <path d="M125.6 244.6l-32.3 15.4c-4.6 2.2-6.5 7.7-4.3 12.3l8.6 18c2.2 4.6 7.7 6.5 12.3 4.3l32.3-15.4c4.6-2.2 6.5-7.7 4.3-12.3l-8.6-18c-2.2-4.6-7.7-6.5-12.3-4.3z" fill="#d97706"/>
  <path d="M386.4 244.6l32.3 15.4c4.6 2.2 6.5 7.7 4.3 12.3l-8.6 18c-2.2 4.6-7.7 6.5-12.3 4.3l-32.3-15.4c-4.6-2.2-6.5-7.7-4.3-12.3l8.6-18c2.2-4.6 7.7-6.5 12.3-4.3z" fill="#d97706"/>
</svg>